<svg width="1607" height="219" viewBox="0 0 1607 219" fill="none" xmlns="http://www.w3.org/2000/svg">
<path d="M1454.42 219V0.818175H1530.7C1545.9 0.818175 1558.43 3.44602 1568.31 8.70171C1578.18 13.8864 1585.53 20.8821 1590.36 29.6889C1595.19 38.4247 1597.6 48.1193 1597.6 58.7727C1597.6 68.1477 1595.93 75.8892 1592.6 81.9972C1589.33 88.1051 1585 92.9347 1579.6 96.4858C1574.27 100.037 1568.48 102.665 1562.23 104.369V106.5C1568.91 106.926 1575.62 109.27 1582.37 113.531C1589.12 117.793 1594.76 123.901 1599.31 131.855C1603.85 139.81 1606.12 149.54 1606.12 161.045C1606.12 171.983 1603.64 181.82 1598.67 190.555C1593.7 199.291 1585.85 206.216 1575.12 211.33C1564.4 216.443 1550.44 219 1533.26 219H1454.42ZM1480.84 195.562H1533.26C1550.51 195.562 1562.77 192.224 1570.01 185.548C1577.33 178.801 1580.98 170.634 1580.98 161.045C1580.98 153.659 1579.1 146.841 1575.34 140.591C1571.57 134.27 1566.21 129.227 1559.25 125.463C1552.29 121.628 1544.05 119.71 1534.53 119.71H1480.84V195.562ZM1480.84 96.6989H1529.85C1537.8 96.6989 1544.97 95.1364 1551.37 92.0114C1557.83 88.8864 1562.94 84.483 1566.71 78.8011C1570.54 73.1193 1572.46 66.4432 1572.46 58.7727C1572.46 49.1847 1569.12 41.0526 1562.45 34.3764C1555.77 27.6293 1545.19 24.2557 1530.7 24.2557H1480.84V96.6989Z" fill="#F7A508"/>
<rect y="1" width="1455" height="25" fill="#F6A508"/>
<rect y="196" width="1455" height="23" fill="#F6A508"/>
</svg>



